<svg xmlns="http://www.w3.org/2000/svg" viewBox="0 0 320 200" width="320" height="200">
  <defs>
    <linearGradient id="da1" x1="0" y1="0" x2="1" y2="1">
      <stop offset="0%" stop-color="#4a4530"/>
      <stop offset="100%" stop-color="#3a3525"/>
    </linearGradient>
  </defs>
  <!-- Film frame background -->
  <rect width="320" height="200" fill="url(#da1)" rx="4"/>
  <!-- Perforations left -->
  <rect x="4" y="10" width="10" height="14" rx="2" fill="#1a1a1a" opacity="0.6"/>
  <rect x="4" y="40" width="10" height="14" rx="2" fill="#1a1a1a" opacity="0.6"/>
  <rect x="4" y="70" width="10" height="14" rx="2" fill="#1a1a1a" opacity="0.6"/>
  <rect x="4" y="100" width="10" height="14" rx="2" fill="#1a1a1a" opacity="0.6"/>
  <rect x="4" y="130" width="10" height="14" rx="2" fill="#1a1a1a" opacity="0.6"/>
  <rect x="4" y="160" width="10" height="14" rx="2" fill="#1a1a1a" opacity="0.6"/>
  <!-- Perforations right -->
  <rect x="306" y="10" width="10" height="14" rx="2" fill="#1a1a1a" opacity="0.6"/>
  <rect x="306" y="40" width="10" height="14" rx="2" fill="#1a1a1a" opacity="0.6"/>
  <rect x="306" y="70" width="10" height="14" rx="2" fill="#1a1a1a" opacity="0.6"/>
  <rect x="306" y="100" width="10" height="14" rx="2" fill="#1a1a1a" opacity="0.6"/>
  <rect x="306" y="130" width="10" height="14" rx="2" fill="#1a1a1a" opacity="0.6"/>
  <rect x="306" y="160" width="10" height="14" rx="2" fill="#1a1a1a" opacity="0.6"/>
  <!-- Scene area - clean -->
  <rect x="24" y="20" width="272" height="160" rx="2" fill="#5a5235"/>
  <!-- Scene elements - clearer, no dirt -->
  <circle cx="160" cy="85" r="25" fill="#7a6a40" opacity="0.7"/>
  <rect x="90" y="120" width="60" height="60" rx="3" fill="#6a5a38" opacity="0.65"/>
  <rect x="180" y="115" width="50" height="65" rx="3" fill="#6a5a38" opacity="0.65"/>
  <!-- Very subtle organic grain preserved (not plastic) -->
  <rect x="24" y="20" width="272" height="160" rx="2" fill="#F5C518" opacity="0.02"/>
</svg>
