<svg xmlns="http://www.w3.org/2000/svg" viewBox="0 0 320 200" width="320" height="200">
  <defs>
    <linearGradient id="fb1" x1="0" y1="0" x2="1" y2="1">
      <stop offset="0%" stop-color="#3a3520"/>
      <stop offset="100%" stop-color="#2a2818"/>
    </linearGradient>
  </defs>
  <!-- Film frame background -->
  <rect width="320" height="200" fill="url(#fb1)" rx="4"/>
  <!-- Perforations left -->
  <rect x="4" y="10" width="10" height="14" rx="2" fill="#1a1a1a" opacity="0.6"/>
  <rect x="4" y="40" width="10" height="14" rx="2" fill="#1a1a1a" opacity="0.6"/>
  <rect x="4" y="70" width="10" height="14" rx="2" fill="#1a1a1a" opacity="0.6"/>
  <rect x="4" y="100" width="10" height="14" rx="2" fill="#1a1a1a" opacity="0.6"/>
  <rect x="4" y="130" width="10" height="14" rx="2" fill="#1a1a1a" opacity="0.6"/>
  <rect x="4" y="160" width="10" height="14" rx="2" fill="#1a1a1a" opacity="0.6"/>
  <!-- Perforations right -->
  <rect x="306" y="10" width="10" height="14" rx="2" fill="#1a1a1a" opacity="0.6"/>
  <rect x="306" y="40" width="10" height="14" rx="2" fill="#1a1a1a" opacity="0.6"/>
  <rect x="306" y="70" width="10" height="14" rx="2" fill="#1a1a1a" opacity="0.6"/>
  <rect x="306" y="100" width="10" height="14" rx="2" fill="#1a1a1a" opacity="0.6"/>
  <rect x="306" y="130" width="10" height="14" rx="2" fill="#1a1a1a" opacity="0.6"/>
  <rect x="306" y="160" width="10" height="14" rx="2" fill="#1a1a1a" opacity="0.6"/>
  <!-- Scene: silhouettes of people -->
  <rect x="24" y="20" width="272" height="160" rx="2" fill="#4a4228"/>
  <!-- Flicker effect: alternating bright/dark bands -->
  <rect x="24" y="20" width="272" height="20" fill="#8a7a48" opacity="0.7"/>
  <rect x="24" y="60" width="272" height="25" fill="#2a2210" opacity="0.8"/>
  <rect x="24" y="110" width="272" height="18" fill="#9a8a50" opacity="0.6"/>
  <rect x="24" y="150" width="272" height="15" fill="#2a2210" opacity="0.7"/>
  <!-- Simple scene elements -->
  <circle cx="160" cy="80" r="22" fill="#6a5a30" opacity="0.5"/>
  <rect x="100" y="120" width="40" height="60" rx="2" fill="#5a4a28" opacity="0.5"/>
  <rect x="180" y="110" width="35" height="70" rx="2" fill="#5a4a28" opacity="0.5"/>
  <!-- Flicker overlay stripes -->
  <rect x="24" y="40" width="272" height="3" fill="#fff" opacity="0.15"/>
  <rect x="24" y="85" width="272" height="4" fill="#fff" opacity="0.2"/>
  <rect x="24" y="130" width="272" height="3" fill="#fff" opacity="0.12"/>
</svg>
