<svg xmlns="http://www.w3.org/2000/svg" viewBox="0 0 320 200" width="320" height="200">
  <defs>
    <linearGradient id="sb1" x1="0" y1="0" x2="1" y2="1">
      <stop offset="0%" stop-color="#3a3520"/>
      <stop offset="100%" stop-color="#2a2818"/>
    </linearGradient>
  </defs>
  <!-- Film frame background -->
  <rect width="320" height="200" fill="url(#sb1)" rx="4"/>
  <!-- Perforations left -->
  <rect x="4" y="10" width="10" height="14" rx="2" fill="#1a1a1a" opacity="0.6"/>
  <rect x="4" y="40" width="10" height="14" rx="2" fill="#1a1a1a" opacity="0.6"/>
  <rect x="4" y="70" width="10" height="14" rx="2" fill="#1a1a1a" opacity="0.6"/>
  <rect x="4" y="100" width="10" height="14" rx="2" fill="#1a1a1a" opacity="0.6"/>
  <rect x="4" y="130" width="10" height="14" rx="2" fill="#1a1a1a" opacity="0.6"/>
  <rect x="4" y="160" width="10" height="14" rx="2" fill="#1a1a1a" opacity="0.6"/>
  <!-- Perforations right -->
  <rect x="306" y="10" width="10" height="14" rx="2" fill="#1a1a1a" opacity="0.6"/>
  <rect x="306" y="40" width="10" height="14" rx="2" fill="#1a1a1a" opacity="0.6"/>
  <rect x="306" y="70" width="10" height="14" rx="2" fill="#1a1a1a" opacity="0.6"/>
  <rect x="306" y="100" width="10" height="14" rx="2" fill="#1a1a1a" opacity="0.6"/>
  <rect x="306" y="130" width="10" height="14" rx="2" fill="#1a1a1a" opacity="0.6"/>
  <rect x="306" y="160" width="10" height="14" rx="2" fill="#1a1a1a" opacity="0.6"/>
  <!-- Scene area -->
  <rect x="24" y="20" width="272" height="160" rx="2" fill="#4a4228"/>
  <!-- Shaky/offset frame elements - showing misalignment -->
  <rect x="30" y="25" width="260" height="150" fill="none" stroke="#6a5a30" stroke-width="1.5" stroke-dasharray="4,3" transform="rotate(2, 160, 100)"/>
  <rect x="35" y="30" width="250" height="140" fill="none" stroke="#6a5a30" stroke-width="1" stroke-dasharray="4,3" transform="rotate(-1.5, 160, 100)"/>
  <!-- Shaky horizon line -->
  <line x1="30" y1="115" x2="290" y2="110" stroke="#5a5030" stroke-width="1.5" transform="rotate(1.5, 160, 112)"/>
  <!-- Scene elements - offset/shaky -->
  <rect x="80" y="55" width="50" height="80" rx="3" fill="#5a4a28" opacity="0.5" transform="rotate(3, 105, 95)"/>
  <rect x="190" y="50" width="45" height="85" rx="3" fill="#5a4a28" opacity="0.5" transform="rotate(-2, 212, 92)"/>
  <!-- Motion blur effect lines -->
  <line x1="60" y1="70" x2="75" y2="68" stroke="#7a6a40" stroke-width="0.8" opacity="0.4"/>
  <line x1="60" y1="90" x2="78" y2="87" stroke="#7a6a40" stroke-width="0.8" opacity="0.4"/>
  <line x1="240" y1="65" x2="255" y2="67" stroke="#7a6a40" stroke-width="0.8" opacity="0.4"/>
  <line x1="240" y1="85" x2="258" y2="83" stroke="#7a6a40" stroke-width="0.8" opacity="0.4"/>
  <!-- Shaky frame borders -->
  <rect x="26" y="22" width="268" height="156" fill="none" stroke="#3a3218" stroke-width="2" transform="rotate(1.2, 160, 100)"/>
</svg>
