<svg xmlns="http://www.w3.org/2000/svg" viewBox="0 0 320 200" width="320" height="200">
  <defs>
    <linearGradient id="sa1" x1="0" y1="0" x2="1" y2="1">
      <stop offset="0%" stop-color="#4a4530"/>
      <stop offset="100%" stop-color="#3a3525"/>
    </linearGradient>
  </defs>
  <!-- Film frame background -->
  <rect width="320" height="200" fill="url(#sa1)" rx="4"/>
  <!-- Perforations left -->
  <rect x="4" y="10" width="10" height="14" rx="2" fill="#1a1a1a" opacity="0.6"/>
  <rect x="4" y="40" width="10" height="14" rx="2" fill="#1a1a1a" opacity="0.6"/>
  <rect x="4" y="70" width="10" height="14" rx="2" fill="#1a1a1a" opacity="0.6"/>
  <rect x="4" y="100" width="10" height="14" rx="2" fill="#1a1a1a" opacity="0.6"/>
  <rect x="4" y="130" width="10" height="14" rx="2" fill="#1a1a1a" opacity="0.6"/>
  <rect x="4" y="160" width="10" height="14" rx="2" fill="#1a1a1a" opacity="0.6"/>
  <!-- Perforations right -->
  <rect x="306" y="10" width="10" height="14" rx="2" fill="#1a1a1a" opacity="0.6"/>
  <rect x="306" y="40" width="10" height="14" rx="2" fill="#1a1a1a" opacity="0.6"/>
  <rect x="306" y="70" width="10" height="14" rx="2" fill="#1a1a1a" opacity="0.6"/>
  <rect x="306" y="100" width="10" height="14" rx="2" fill="#1a1a1a" opacity="0.6"/>
  <rect x="306" y="130" width="10" height="14" rx="2" fill="#1a1a1a" opacity="0.6"/>
  <rect x="306" y="160" width="10" height="14" rx="2" fill="#1a1a1a" opacity="0.6"/>
  <!-- Scene area - slightly cropped to show stabilization crop -->
  <rect x="24" y="20" width="272" height="160" rx="2" fill="#5a5235"/>
  <rect x="30" y="26" width="260" height="148" rx="2" fill="#4a4830"/>
  <!-- Stable horizon line -->
  <line x1="30" y1="112" x2="290" y2="112" stroke="#6a6040" stroke-width="1.5"/>
  <!-- Scene elements - aligned, stable -->
  <rect x="82" y="55" width="50" height="80" rx="3" fill="#6a5a38" opacity="0.7"/>
  <rect x="190" y="50" width="45" height="85" rx="3" fill="#6a5a38" opacity="0.7"/>
  <!-- Slight crop border indicator -->
  <rect x="30" y="26" width="260" height="148" fill="none" stroke="#F5C518" stroke-width="0.5" stroke-dasharray="6,3" opacity="0.3" rx="2"/>
</svg>
